<svg width="24" height="24" viewBox="0 0 24 24" fill="none" xmlns="http://www.w3.org/2000/svg">
<path d="M23.9628 7.37712C24.1514 7.90171 23.5366 9.10663 22.1186 10.9919C21.9218 11.2542 21.6554 11.6025 21.3194 12.037C20.9915 12.455 20.7661 12.7501 20.6432 12.9222C20.5202 13.0943 20.3952 13.2972 20.2682 13.5308C20.1411 13.7644 20.0919 13.9365 20.1206 14.0472C20.1493 14.1579 20.2026 14.2993 20.2804 14.4714C20.3583 14.6435 20.4915 14.8197 20.68 15.0001C20.8686 15.1804 21.1022 15.3976 21.3809 15.6517C21.4136 15.6681 21.4341 15.6845 21.4423 15.7009C22.5981 16.7747 23.3809 17.6804 23.7907 18.4181C23.8153 18.4591 23.8419 18.5103 23.8706 18.5718C23.8993 18.6333 23.928 18.7419 23.9567 18.8976C23.9854 19.0534 23.9833 19.1927 23.9505 19.3156C23.9177 19.4386 23.8153 19.5513 23.6432 19.6538C23.471 19.7562 23.2292 19.8074 22.9177 19.8074L19.7702 19.8566C19.5735 19.8976 19.344 19.8771 19.0817 19.7952C18.8194 19.7132 18.6063 19.623 18.4423 19.5247L18.1964 19.3771C17.9505 19.205 17.6636 18.9427 17.3358 18.5902C17.0079 18.2378 16.7272 17.9202 16.4936 17.6374C16.26 17.3546 16.01 17.1169 15.7436 16.9243C15.4772 16.7316 15.2456 16.6681 15.0489 16.7337C15.0243 16.7419 14.9915 16.7562 14.9505 16.7767C14.9095 16.7972 14.8399 16.8566 14.7415 16.955C14.6432 17.0534 14.555 17.1743 14.4772 17.3177C14.3993 17.4611 14.3296 17.6743 14.2682 17.957C14.2067 18.2398 14.18 18.5574 14.1882 18.9099C14.1882 19.0329 14.1739 19.1456 14.1452 19.248C14.1165 19.3505 14.0858 19.4263 14.053 19.4755L14.0038 19.537C13.8563 19.6927 13.6391 19.7829 13.3522 19.8074H11.9382C11.3563 19.8402 10.7579 19.7726 10.1432 19.6046C9.5284 19.4365 8.98947 19.2193 8.52635 18.9529C8.06324 18.6865 7.64111 18.4161 7.25996 18.1415C6.87881 17.8669 6.58988 17.6312 6.39315 17.4345L6.08578 17.1394C6.00381 17.0574 5.89111 16.9345 5.74766 16.7706C5.60422 16.6066 5.31119 16.2337 4.86856 15.6517C4.42594 15.0697 3.99152 14.4509 3.56529 13.7952C3.13906 13.1394 2.63701 12.2747 2.05914 11.2009C1.48127 10.1271 0.946433 9.01237 0.45463 7.85663C0.40545 7.72548 0.380859 7.61483 0.380859 7.52466C0.380859 7.4345 0.393154 7.36892 0.417745 7.32794L0.466925 7.25417C0.589876 7.09843 0.823482 7.02056 1.16774 7.02056L4.5366 6.99597C4.63496 7.01237 4.72922 7.03901 4.81938 7.07589C4.90955 7.11278 4.97512 7.14761 5.01611 7.1804L5.07758 7.21728C5.20873 7.30745 5.30709 7.4386 5.37266 7.61073C5.5366 8.02056 5.72512 8.44474 5.93824 8.88327C6.15135 9.32179 6.31938 9.65581 6.44233 9.88532L6.63906 10.2419C6.87676 10.7337 7.10627 11.1599 7.32758 11.5206C7.54889 11.8812 7.74766 12.162 7.92389 12.3628C8.10012 12.5636 8.2702 12.7214 8.43414 12.8361C8.59807 12.9509 8.73742 13.0083 8.85217 13.0083C8.96693 13.0083 9.07758 12.9878 9.18414 12.9468C9.20053 12.9386 9.22102 12.9181 9.24561 12.8853C9.2702 12.8525 9.31938 12.7624 9.39315 12.6148C9.46693 12.4673 9.52225 12.2747 9.55914 12.037C9.59602 11.7993 9.63496 11.4673 9.67594 11.0411C9.71693 10.6148 9.71693 10.1025 9.67594 9.50417C9.65955 9.1763 9.62266 8.87712 9.56529 8.60663C9.50791 8.33614 9.45053 8.14761 9.39315 8.04106L9.31938 7.89351C9.11447 7.61483 8.76611 7.4386 8.2743 7.36483C8.16774 7.34843 8.18824 7.25007 8.33578 7.06974C8.46693 6.91401 8.62266 6.79106 8.80299 6.70089C9.23742 6.48778 10.2169 6.38942 11.7415 6.40581C12.4136 6.41401 12.9669 6.46728 13.4014 6.56565C13.5653 6.60663 13.7026 6.66196 13.8132 6.73163C13.9239 6.8013 14.0079 6.89966 14.0653 7.02671C14.1227 7.15376 14.1657 7.28491 14.1944 7.42015C14.2231 7.5554 14.2374 7.74187 14.2374 7.97958C14.2374 8.21728 14.2333 8.44269 14.2251 8.65581C14.2169 8.86892 14.2067 9.15786 14.1944 9.52261C14.1821 9.88737 14.1759 10.2255 14.1759 10.537C14.1759 10.6271 14.1718 10.7993 14.1636 11.0534C14.1554 11.3074 14.1534 11.5042 14.1575 11.6435C14.1616 11.7829 14.1759 11.9488 14.2005 12.1415C14.2251 12.3341 14.2723 12.4939 14.3419 12.621C14.4116 12.748 14.5038 12.8484 14.6186 12.9222C14.6841 12.9386 14.7538 12.955 14.8276 12.9714C14.9014 12.9878 15.0079 12.9427 15.1473 12.8361C15.2866 12.7296 15.4423 12.5882 15.6145 12.412C15.7866 12.2357 15.9997 11.9611 16.2538 11.5882C16.5079 11.2152 16.7866 10.7747 17.0899 10.2665C17.5817 9.41401 18.0202 8.49187 18.4054 7.50007C18.4382 7.4181 18.4792 7.34638 18.5284 7.28491C18.5776 7.22343 18.6227 7.1804 18.6636 7.15581L18.7128 7.11892L18.7743 7.08819L18.9341 7.0513L19.18 7.04515L22.721 7.02056C23.0407 6.97958 23.303 6.98983 23.5079 7.0513C23.7128 7.11278 23.8399 7.1804 23.8891 7.25417L23.9628 7.37712Z" fill="white"/>
</svg>
