<svg width="24" height="24" viewBox="0 0 24 24" fill="none" xmlns="http://www.w3.org/2000/svg">
<path d="M17.2499 12.75H6.74989C6.55339 12.75 6.38989 12.9019 6.37564 13.0984C6.36851 13.1963 6.22226 15.5104 7.76239 17.1638C8.74226 18.2164 10.168 18.75 11.9999 18.75C13.8318 18.75 15.2575 18.2164 16.2374 17.1638C17.7771 15.51 17.6309 13.1959 17.6238 13.0984C17.6099 12.9019 17.4464 12.75 17.2499 12.75ZM15.6839 16.6575C14.8514 17.5481 13.6124 18 11.9999 18C10.3878 18 9.14801 17.5481 8.31589 16.6575C7.32289 15.5947 7.14889 14.1544 7.12414 13.5H16.876C16.8513 14.1544 16.6773 15.5944 15.6839 16.6575Z" fill="#484F4A"/>
<path d="M6.89779 10.8446L9.52279 9.71965C9.66079 9.66077 9.75004 9.52502 9.75004 9.37502C9.75004 9.22502 9.66079 9.08927 9.52279 9.0304L6.89779 7.9054L6.60229 8.59465L8.42292 9.37502L6.60229 10.1554L6.89779 10.8446Z" fill="#484F4A"/>
<path d="M14.4772 9.71965L17.1022 10.8446L17.3974 10.1554L15.5771 9.37502L17.3974 8.59465L17.1022 7.9054L14.4772 9.0304C14.3392 9.08927 14.25 9.22502 14.25 9.37502C14.25 9.52502 14.3392 9.66077 14.4772 9.71965Z" fill="#484F4A"/>
<path d="M12 1.5C6.21037 1.5 1.5 6.21037 1.5 12C1.5 17.7896 6.21037 22.5 12 22.5C17.7896 22.5 22.5 17.7896 22.5 12C22.5 6.21037 17.7896 1.5 12 1.5ZM12 21.75C6.624 21.75 2.25 17.376 2.25 12C2.25 6.624 6.624 2.25 12 2.25C17.3764 2.25 21.75 6.624 21.75 12C21.75 17.376 17.3764 21.75 12 21.75Z" fill="#484F4A"/>
</svg>
