<svg width="24" height="24" viewBox="0 0 24 24" fill="none" xmlns="http://www.w3.org/2000/svg">
<path d="M22.851 13.1865C22.7295 12.1654 21.9998 9 17.625 9C16.5919 9 15.7346 9.27 15.0203 9.69788C15.1211 7.94437 15.8396 6.44063 17.2766 5.00363L17.5151 4.76512L17.5054 4.75537C17.6554 4.82962 17.8219 4.875 18 4.875C18.6203 4.875 19.125 4.37025 19.125 3.75C19.125 3.12975 18.6203 2.625 18 2.625C17.5103 2.625 17.0966 2.9415 16.9429 3.3795C13.1917 3.42525 10.4839 4.305 8.89725 6.00113C7.78012 7.19475 7.55025 8.457 7.5075 9.0525C7.26225 9.018 7.00988 9 6.75 9C2.86388 9 1.4355 11.5898 1.16475 13.1816C0.70875 13.3253 0.375 13.7471 0.375 14.25C0.375 14.8703 0.87975 15.375 1.5 15.375C2.12025 15.375 2.625 14.8703 2.625 14.25C2.625 13.911 2.47125 13.6106 2.2335 13.404C2.601 12.9765 3.22538 12.75 4.07025 12.75C4.587 12.75 4.96162 12.903 5.21625 13.2176C5.724 13.8458 5.643 14.943 5.57625 15.4275C4.74675 15.6206 4.125 16.3624 4.125 17.25L5.346 21.375H18.654L19.8593 17.3576L19.875 17.25C19.875 16.362 19.2529 15.6199 18.4222 15.4271C18.342 14.8552 18.3101 13.8049 18.7826 13.2188C19.0373 12.9034 19.4122 12.75 19.9297 12.75C20.7746 12.75 21.3994 12.9765 21.7665 13.404C21.5287 13.6106 21.375 13.911 21.375 14.25C21.375 14.8703 21.8797 15.375 22.5 15.375C23.1203 15.375 23.625 14.8703 23.625 14.25C23.625 13.7528 23.2988 13.335 22.851 13.1865ZM18 3.375C18.207 3.375 18.375 3.54338 18.375 3.75C18.375 3.95662 18.207 4.125 18 4.125C17.793 4.125 17.625 3.95662 17.625 3.75C17.625 3.54338 17.793 3.375 18 3.375ZM9.44475 6.51337C10.8863 4.97287 13.4108 4.173 16.9455 4.1295C16.9597 4.16925 16.9763 4.2075 16.9946 4.245L16.9849 4.23525L16.7464 4.47375C15.0431 6.17625 14.25 7.97212 14.25 10.125V10.2611C13.0942 11.2853 12.4286 12.7414 12.0574 13.8911C11.937 13.431 11.772 12.9221 11.5463 12.411C10.8041 10.7295 9.67987 9.64612 8.24925 9.21375C8.262 8.82187 8.3925 7.638 9.44475 6.51337ZM13.125 20.625H10.875V17.25C10.875 16.6297 11.3797 16.125 12 16.125C12.6203 16.125 13.125 16.6297 13.125 17.25V20.625ZM7.875 17.25C7.875 16.6297 8.37975 16.125 9 16.125C9.62025 16.125 10.125 16.6297 10.125 17.25V20.625H8.21438L7.875 17.25ZM1.5 14.625C1.293 14.625 1.125 14.4566 1.125 14.25C1.125 14.0434 1.293 13.875 1.5 13.875C1.707 13.875 1.875 14.0434 1.875 14.25C1.875 14.4566 1.707 14.625 1.5 14.625ZM4.07025 12C3.19275 12 2.57925 12.2048 2.148 12.4864C2.5965 11.3651 3.76012 9.75 6.75 9.75C8.60362 9.75 9.984 10.7415 10.8521 12.6968C11.3336 13.7813 11.5211 14.8789 11.5894 15.4222C11.1476 15.5216 10.7633 15.7755 10.5 16.1261C10.1576 15.6705 9.61275 15.375 9 15.375C8.38725 15.375 7.84237 15.6705 7.5 16.1261C7.22175 15.7556 6.8085 15.4943 6.33487 15.4084C6.40912 14.7694 6.4455 13.548 5.80125 12.7481C5.40075 12.2516 4.81875 12 4.07025 12ZM4.87613 17.1986C4.90275 16.602 5.397 16.125 6 16.125C6.62025 16.125 7.125 16.6297 7.125 17.25H7.1265V17.2875L7.46025 20.625H5.90363L4.87613 17.1986ZM19.1239 17.1986L18.096 20.625H16.5394L16.6106 19.9125L15.8644 19.8379L15.7856 20.6254H13.875V17.2504C13.875 16.6301 14.3797 16.1254 15 16.1254C15.6173 16.1254 16.119 16.6249 16.1239 17.241L15.9394 19.0875L16.6856 19.1621L16.875 17.25C16.875 16.6297 17.3797 16.125 18 16.125C18.603 16.125 19.0973 16.602 19.1239 17.1986ZM19.9297 12C19.1816 12 18.5992 12.2516 18.1991 12.7481C17.5545 13.5476 17.5913 14.7694 17.6655 15.4084C17.1919 15.4943 16.7786 15.7556 16.5004 16.1261C16.1576 15.6705 15.6127 15.375 15 15.375C14.3873 15.375 13.8424 15.6705 13.5 16.1261C13.2409 15.7811 12.8655 15.5288 12.4324 15.426C12.5347 14.8763 12.7875 13.7884 13.3282 12.7133C14.3171 10.7471 15.7627 9.75 17.625 9.75C20.6783 9.75 21.66 11.46 21.9754 12.5726C21.5404 12.2471 20.8942 12 19.9297 12ZM22.5 14.625C22.293 14.625 22.125 14.4566 22.125 14.25C22.125 14.0434 22.293 13.875 22.5 13.875C22.707 13.875 22.875 14.0434 22.875 14.25C22.875 14.4566 22.707 14.625 22.5 14.625Z" fill="#484F4A"/>
<path d="M18.375 16.875H17.625V17.625H18.375V16.875Z" fill="#484F4A"/>
<path d="M15.375 16.875H14.625V17.625H15.375V16.875Z" fill="#484F4A"/>
<path d="M12.375 16.875H11.625V17.625H12.375V16.875Z" fill="#484F4A"/>
<path d="M9.375 16.875H8.625V17.625H9.375V16.875Z" fill="#484F4A"/>
<path d="M6.375 16.875H5.625V17.625H6.375V16.875Z" fill="#484F4A"/>
</svg>
