<svg width="24" height="24" viewBox="0 0 24 24" fill="none" xmlns="http://www.w3.org/2000/svg">
<path d="M14.5 24H9.5C8.397 24 7.5 23.103 7.5 22C7.5 21.087 8.8025 18.72 9.064 18.2555C9.1495 18.1035 9.307 18.007 9.481 18.0005C9.66 17.982 9.82 18.0775 9.916 18.2225L10.4775 19.0655L11.5715 17.2425C11.752 16.9415 12.2485 16.9415 12.429 17.2425L13.523 19.0655L14.0845 18.2225C14.1805 18.0775 14.339 17.9805 14.5195 18.0005C14.6935 18.007 14.851 18.1035 14.9365 18.2555C15.1975 18.72 16.5 21.087 16.5 22C16.5 23.103 15.603 24 14.5 24ZM9.545 19.469C8.9905 20.5345 8.5 21.6505 8.5 22C8.5 22.5515 8.9485 23 9.5 23H14.5C15.0515 23 15.5 22.5515 15.5 22C15.5 21.6505 15.0095 20.534 14.455 19.469L13.916 20.2775C13.8215 20.4195 13.656 20.4935 13.4885 20.5C13.317 20.4955 13.16 20.4045 13.0715 20.2575L12 18.4715L10.9285 20.257C10.84 20.404 10.683 20.4955 10.5115 20.4995C10.3435 20.4915 10.1785 20.419 10.084 20.277L9.545 19.469Z" fill="#484F4A"/>
<path d="M17.5 16H6.5C5.1215 16 4 14.8785 4 13.5V2.5C4 2.2235 4.2235 2 4.5 2H19.5C19.7765 2 20 2.2235 20 2.5V13.5C20 14.8785 18.8785 16 17.5 16ZM5 3V13.5C5 14.327 5.673 15 6.5 15H17.5C18.327 15 19 14.327 19 13.5V3H5Z" fill="#484F4A"/>
<path d="M4.5 6H2.5C2.2235 6 2 5.7765 2 5.5C2 5.2235 2.2235 5 2.5 5H4.5C4.7765 5 5 5.2235 5 5.5C5 5.7765 4.7765 6 4.5 6Z" fill="#484F4A"/>
<path d="M21.5 5.6665H19.5C19.2235 5.6665 19 5.443 19 5.1665C19 4.89 19.2235 4.6665 19.5 4.6665H21.5C21.7765 4.6665 22 4.89 22 5.1665C22 5.443 21.7765 5.6665 21.5 5.6665Z" fill="#484F4A"/>
<path d="M20.5 3H3.5C3.2235 3 3 2.7765 3 2.5C3 2.2235 3.2235 2 3.5 2H20.5C20.7765 2 21 2.2235 21 2.5C21 2.7765 20.7765 3 20.5 3Z" fill="#484F4A"/>
<path d="M14 3C13.7235 3 13.5 2.7765 13.5 2.5C13.5 1.673 12.827 1 12 1C11.173 1 10.5 1.673 10.5 2.5C10.5 2.7765 10.2765 3 10 3C9.7235 3 9.5 2.7765 9.5 2.5C9.5 1.1215 10.6215 0 12 0C13.3785 0 14.5 1.1215 14.5 2.5C14.5 2.7765 14.2765 3 14 3Z" fill="#484F4A"/>
</svg>
